<mxfile host="app.diagrams.net" modified="2024-01-10T10:43:31.477Z" agent="Mozilla/5.0 (Windows NT 10.0; Win64; x64) AppleWebKit/537.36 (KHTML, like Gecko) Chrome/120.0.0.0 Safari/537.36" etag="CA10b2jx-gtrH8Rh0lkA" version="22.1.18" type="device">
  <diagram name="Page-1" id="i7rubeO_9zqoBeerI8KF">
    <mxGraphModel dx="1050" dy="522" grid="1" gridSize="10" guides="1" tooltips="1" connect="1" arrows="1" fold="1" page="1" pageScale="1" pageWidth="827" pageHeight="1169" math="0" shadow="0">
      <root>
        <mxCell id="0" />
        <mxCell id="1" parent="0" />
        <mxCell id="6cRg7CXB-kv5eK58Ga7Z-21" style="edgeStyle=orthogonalEdgeStyle;rounded=0;orthogonalLoop=1;jettySize=auto;html=1;exitX=0.5;exitY=1;exitDx=0;exitDy=0;entryX=0.5;entryY=0;entryDx=0;entryDy=0;" edge="1" parent="1" source="6cRg7CXB-kv5eK58Ga7Z-1" target="6cRg7CXB-kv5eK58Ga7Z-2">
          <mxGeometry relative="1" as="geometry">
            <mxPoint x="385" y="110" as="targetPoint" />
          </mxGeometry>
        </mxCell>
        <mxCell id="6cRg7CXB-kv5eK58Ga7Z-1" value="define constants&amp;nbsp;" style="ellipse;whiteSpace=wrap;html=1;" vertex="1" parent="1">
          <mxGeometry x="300" y="20" width="170" height="60" as="geometry" />
        </mxCell>
        <mxCell id="6cRg7CXB-kv5eK58Ga7Z-22" style="edgeStyle=orthogonalEdgeStyle;rounded=0;orthogonalLoop=1;jettySize=auto;html=1;exitX=0.5;exitY=1;exitDx=0;exitDy=0;entryX=0.5;entryY=0;entryDx=0;entryDy=0;" edge="1" parent="1" source="6cRg7CXB-kv5eK58Ga7Z-2" target="6cRg7CXB-kv5eK58Ga7Z-4">
          <mxGeometry relative="1" as="geometry" />
        </mxCell>
        <mxCell id="6cRg7CXB-kv5eK58Ga7Z-2" value="creation of help message function" style="ellipse;whiteSpace=wrap;html=1;" vertex="1" parent="1">
          <mxGeometry x="300" y="120" width="170" height="50" as="geometry" />
        </mxCell>
        <mxCell id="6cRg7CXB-kv5eK58Ga7Z-23" style="edgeStyle=orthogonalEdgeStyle;rounded=0;orthogonalLoop=1;jettySize=auto;html=1;exitX=0.5;exitY=1;exitDx=0;exitDy=0;entryX=0.5;entryY=0;entryDx=0;entryDy=0;" edge="1" parent="1" source="6cRg7CXB-kv5eK58Ga7Z-4" target="6cRg7CXB-kv5eK58Ga7Z-6">
          <mxGeometry relative="1" as="geometry" />
        </mxCell>
        <mxCell id="6cRg7CXB-kv5eK58Ga7Z-4" value="creation of main function&lt;br&gt;" style="ellipse;whiteSpace=wrap;html=1;" vertex="1" parent="1">
          <mxGeometry x="300" y="210" width="170" height="50" as="geometry" />
        </mxCell>
        <mxCell id="6cRg7CXB-kv5eK58Ga7Z-14" style="edgeStyle=orthogonalEdgeStyle;rounded=0;orthogonalLoop=1;jettySize=auto;html=1;exitX=0.5;exitY=1;exitDx=0;exitDy=0;" edge="1" parent="1" source="6cRg7CXB-kv5eK58Ga7Z-6" target="6cRg7CXB-kv5eK58Ga7Z-8">
          <mxGeometry relative="1" as="geometry" />
        </mxCell>
        <mxCell id="6cRg7CXB-kv5eK58Ga7Z-6" value="option handling" style="ellipse;whiteSpace=wrap;html=1;" vertex="1" parent="1">
          <mxGeometry x="300" y="310" width="170" height="80" as="geometry" />
        </mxCell>
        <mxCell id="6cRg7CXB-kv5eK58Ga7Z-7" value="option&amp;nbsp; ---help" style="ellipse;whiteSpace=wrap;html=1;" vertex="1" parent="1">
          <mxGeometry x="170" y="480" width="120" height="80" as="geometry" />
        </mxCell>
        <mxCell id="6cRg7CXB-kv5eK58Ga7Z-8" value="option --version" style="ellipse;whiteSpace=wrap;html=1;" vertex="1" parent="1">
          <mxGeometry x="340" y="480" width="100" height="80" as="geometry" />
        </mxCell>
        <mxCell id="6cRg7CXB-kv5eK58Ga7Z-9" value="option cpu or memory" style="ellipse;whiteSpace=wrap;html=1;" vertex="1" parent="1">
          <mxGeometry x="20" y="480" width="120" height="80" as="geometry" />
        </mxCell>
        <mxCell id="6cRg7CXB-kv5eK58Ga7Z-10" value="option --report" style="ellipse;whiteSpace=wrap;html=1;" vertex="1" parent="1">
          <mxGeometry x="500" y="480" width="120" height="80" as="geometry" />
        </mxCell>
        <mxCell id="6cRg7CXB-kv5eK58Ga7Z-11" value="option&amp;nbsp; file" style="ellipse;whiteSpace=wrap;html=1;" vertex="1" parent="1">
          <mxGeometry x="670" y="490" width="120" height="80" as="geometry" />
        </mxCell>
        <mxCell id="6cRg7CXB-kv5eK58Ga7Z-12" style="edgeStyle=orthogonalEdgeStyle;rounded=0;orthogonalLoop=1;jettySize=auto;html=1;exitX=0;exitY=0.5;exitDx=0;exitDy=0;" edge="1" parent="1" source="6cRg7CXB-kv5eK58Ga7Z-11" target="6cRg7CXB-kv5eK58Ga7Z-11">
          <mxGeometry relative="1" as="geometry" />
        </mxCell>
        <mxCell id="6cRg7CXB-kv5eK58Ga7Z-13" value="" style="endArrow=none;html=1;rounded=0;exitX=0.5;exitY=0;exitDx=0;exitDy=0;" edge="1" parent="1" source="6cRg7CXB-kv5eK58Ga7Z-7">
          <mxGeometry width="50" height="50" relative="1" as="geometry">
            <mxPoint x="270" y="440" as="sourcePoint" />
            <mxPoint x="320" y="390" as="targetPoint" />
          </mxGeometry>
        </mxCell>
        <mxCell id="6cRg7CXB-kv5eK58Ga7Z-16" value="" style="endArrow=none;html=1;rounded=0;exitX=0.43;exitY=0.015;exitDx=0;exitDy=0;exitPerimeter=0;entryX=0;entryY=0.5;entryDx=0;entryDy=0;" edge="1" parent="1" source="6cRg7CXB-kv5eK58Ga7Z-9" target="6cRg7CXB-kv5eK58Ga7Z-6">
          <mxGeometry width="50" height="50" relative="1" as="geometry">
            <mxPoint x="390" y="520" as="sourcePoint" />
            <mxPoint x="300" y="410" as="targetPoint" />
          </mxGeometry>
        </mxCell>
        <mxCell id="6cRg7CXB-kv5eK58Ga7Z-17" value="" style="endArrow=none;html=1;rounded=0;entryX=0.812;entryY=0.97;entryDx=0;entryDy=0;entryPerimeter=0;exitX=0.423;exitY=-0.025;exitDx=0;exitDy=0;exitPerimeter=0;" edge="1" parent="1" source="6cRg7CXB-kv5eK58Ga7Z-10" target="6cRg7CXB-kv5eK58Ga7Z-6">
          <mxGeometry width="50" height="50" relative="1" as="geometry">
            <mxPoint x="390" y="520" as="sourcePoint" />
            <mxPoint x="440" y="470" as="targetPoint" />
          </mxGeometry>
        </mxCell>
        <mxCell id="6cRg7CXB-kv5eK58Ga7Z-18" value="" style="endArrow=none;html=1;rounded=0;entryX=1;entryY=0.64;entryDx=0;entryDy=0;entryPerimeter=0;exitX=0.433;exitY=-0.05;exitDx=0;exitDy=0;exitPerimeter=0;" edge="1" parent="1" source="6cRg7CXB-kv5eK58Ga7Z-11" target="6cRg7CXB-kv5eK58Ga7Z-6">
          <mxGeometry width="50" height="50" relative="1" as="geometry">
            <mxPoint x="390" y="520" as="sourcePoint" />
            <mxPoint x="440" y="470" as="targetPoint" />
          </mxGeometry>
        </mxCell>
      </root>
    </mxGraphModel>
  </diagram>
</mxfile>
